<svg width="1920" height="1080" viewBox="0 0 1920 1080" fill="none" xmlns="http://www.w3.org/2000/svg">
<g clip-path="url(#clip0_38_7936)">
<rect width="1920" height="1080" fill="white"/>
<rect x="1417.9" y="227.713" width="283" height="87.5065" rx="12" transform="rotate(165.482 1417.9 227.713)" fill="url(#paint0_linear_38_7936)"/>
<rect x="1138.9" y="304.713" width="283" height="87.5065" rx="12" transform="rotate(165.482 1138.9 304.713)" fill="url(#paint1_linear_38_7936)"/>
<rect x="1240.9" y="52.7129" width="283" height="87.5065" rx="12" transform="rotate(165.482 1240.9 52.7129)" fill="url(#paint2_linear_38_7936)"/>
<rect x="1092.9" y="205.713" width="283" height="87.5065" rx="12" transform="rotate(165.482 1092.9 205.713)" fill="url(#paint3_linear_38_7936)"/>
<rect x="1231" y="-33.8633" width="206" height="86" rx="12" transform="rotate(-12.9424 1231 -33.8633)" fill="url(#paint4_linear_38_7936)"/>
<path d="M1585.72 58.8734C1587.29 65.3129 1583.34 71.8034 1576.9 73.3702L1394.23 117.817C1387.79 119.383 1381.3 115.433 1379.73 108.994L1364.84 47.7798C1363.27 41.3402 1367.22 34.8498 1373.66 33.2829L1556.33 -11.1635C1562.77 -12.7303 1569.26 -8.78021 1570.83 -2.34067L1585.72 58.8734Z" fill="url(#paint5_linear_38_7936)"/>
<rect x="1833.49" y="10.5625" width="206" height="86" rx="12" transform="rotate(166.325 1833.49 10.5625)" fill="url(#paint6_linear_38_7936)"/>
<rect x="1371.9" y="129.713" width="283" height="87.5065" rx="12" transform="rotate(165.482 1371.9 129.713)" fill="url(#paint7_linear_38_7936)"/>
<path d="M1705.72 70.1776C1704.24 63.7185 1708.27 57.2791 1714.73 55.7948L1897.95 13.6881C1904.41 12.2038 1910.85 16.2366 1912.34 22.6956L1926.45 84.0952C1927.93 90.5542 1923.9 96.9936 1917.44 98.478L1734.22 140.585C1727.76 142.069 1721.32 138.036 1719.83 131.577L1705.72 70.1776Z" fill="url(#paint8_linear_38_7936)"/>
<rect x="1483" y="110.074" width="206" height="86" rx="12" transform="rotate(-12.9424 1483 110.074)" fill="url(#paint9_linear_38_7936)"/>
<path d="M1807.72 219.34C1809.29 225.78 1805.34 232.27 1798.9 233.837L1616.23 278.283C1609.79 279.85 1603.3 275.9 1601.73 269.461L1586.84 208.247C1585.27 201.807 1589.22 195.317 1595.66 193.75L1778.33 149.303C1784.77 147.736 1791.26 151.687 1792.83 158.126L1807.72 219.34Z" fill="url(#paint10_linear_38_7936)"/>
<rect x="2013.49" y="176.562" width="206" height="86" rx="12" transform="rotate(166.325 2013.49 176.562)" fill="url(#paint11_linear_38_7936)"/>
<rect x="1601.9" y="287" width="283" height="87.5065" rx="12" transform="rotate(165.482 1601.9 287)" fill="url(#paint12_linear_38_7936)"/>
<rect x="1322.9" y="364" width="283" height="87.5065" rx="12" transform="rotate(165.482 1322.9 364)" fill="url(#paint13_linear_38_7936)"/>
<path d="M1721.04 744.993C1719.44 738.562 1723.36 732.052 1729.79 730.454L1912.25 685.117C1918.68 683.518 1925.19 687.437 1926.79 693.869L1941.98 755.009C1943.58 761.441 1939.66 767.951 1933.23 769.549L1750.77 814.886C1744.34 816.484 1737.83 812.566 1736.24 806.134L1721.04 744.993Z" fill="url(#paint14_linear_38_7936)"/>
<rect x="1507" y="785.137" width="206" height="86" rx="12" transform="rotate(-12.9424 1507 785.137)" fill="url(#paint15_linear_38_7936)"/>
<path d="M1749.72 924.34C1751.29 930.78 1747.34 937.27 1740.9 938.837L1558.23 983.283C1551.79 984.85 1545.3 980.9 1543.73 974.461L1528.84 913.247C1527.27 906.807 1531.22 900.317 1537.66 898.75L1720.33 854.303C1726.77 852.736 1733.26 856.687 1734.83 863.126L1749.72 924.34Z" fill="url(#paint16_linear_38_7936)"/>
<rect x="1955.49" y="881.562" width="206" height="86" rx="12" transform="rotate(166.325 1955.49 881.562)" fill="url(#paint17_linear_38_7936)"/>
<rect x="1543.9" y="992" width="283" height="87.5065" rx="12" transform="rotate(165.482 1543.9 992)" fill="url(#paint18_linear_38_7936)"/>
<rect x="1264.9" y="1069" width="283" height="87.5065" rx="12" transform="rotate(165.482 1264.9 1069)" fill="url(#paint19_linear_38_7936)"/>
<rect x="1057.9" y="1093.71" width="283" height="87.5065" rx="12" transform="rotate(165.482 1057.9 1093.71)" fill="url(#paint20_linear_38_7936)"/>
<rect x="1718.49" y="1074.56" width="206" height="86" rx="12" transform="rotate(166.325 1718.49 1074.56)" fill="url(#paint21_linear_38_7936)"/>
<rect x="1497.49" y="1125.56" width="206" height="86" rx="12" transform="rotate(166.325 1497.49 1125.56)" fill="url(#paint22_linear_38_7936)"/>
<rect x="2039.9" y="978.713" width="283" height="87.5065" rx="12" transform="rotate(165.482 2039.9 978.713)" fill="url(#paint23_linear_38_7936)"/>
<path opacity="0.5" d="M1742.78 611.771C1741.18 605.339 1745.1 598.829 1751.53 597.231L1933.98 551.894C1940.41 550.296 1946.92 554.214 1948.52 560.646L1963.71 621.786C1965.31 628.218 1961.39 634.728 1954.96 636.326L1772.51 681.663C1766.08 683.262 1759.57 679.343 1757.97 672.911L1742.78 611.771Z" fill="url(#paint24_linear_38_7936)"/>
<rect opacity="0.5" x="1528.74" y="651.916" width="206" height="86" rx="12" transform="rotate(-12.9424 1528.74 651.916)" fill="url(#paint25_linear_38_7936)"/>
<rect opacity="0.5" x="1295.74" y="710.916" width="206" height="86" rx="12" transform="rotate(-12.9424 1295.74 710.916)" fill="url(#paint26_linear_38_7936)"/>
<path opacity="0.5" d="M1049.89 796.042C1048.3 789.611 1052.21 783.101 1058.65 781.503L1241.1 736.165C1247.53 734.567 1254.04 738.486 1255.64 744.917L1270.83 806.058C1272.43 812.49 1268.51 818.999 1262.08 820.598L1079.63 865.935C1073.19 867.533 1066.68 863.615 1065.09 857.183L1049.89 796.042Z" fill="url(#paint27_linear_38_7936)"/>
<rect opacity="0.58" x="1274" y="844.137" width="206" height="86" rx="12" transform="rotate(-12.9424 1274 844.137)" fill="url(#paint28_linear_38_7936)"/>
<path opacity="0.47" d="M1028.16 929.263C1026.56 922.831 1030.48 916.322 1036.91 914.723L1219.36 869.386C1225.79 867.788 1232.3 871.706 1233.9 878.138L1249.09 939.279C1250.69 945.71 1246.77 952.22 1240.34 953.818L1057.89 999.156C1051.46 1000.75 1044.95 996.835 1043.35 990.404L1028.16 929.263Z" fill="url(#paint29_linear_38_7936)"/>
<path d="M1032 0H0V1080H917C917 1080 1038.57 872.466 1032 728C1023.5 541 906.225 422.005 919.5 274C929.834 158.791 1032 0 1032 0Z" fill="#2B75E4"/>
<circle opacity="0.33" cx="200" cy="220" r="180" fill="url(#paint30_radial_38_7936)"/>
<circle opacity="0.33" cx="838" cy="697" r="137" fill="url(#paint31_radial_38_7936)"/>
<circle opacity="0.33" cx="143" cy="917" r="94" fill="url(#paint32_radial_38_7936)"/>
<circle opacity="0.33" cx="764" cy="120" r="74" fill="url(#paint33_radial_38_7936)"/>
<path d="M1307.08 450.242V451.278H1304.42V460H1303.15V451.278H1300.48V450.242H1307.08ZM1315.26 452.328L1310.64 463.612H1309.32L1310.84 459.916L1307.74 452.328H1309.16L1311.56 458.544L1313.94 452.328H1315.26ZM1317.81 453.742C1318.07 453.303 1318.44 452.939 1318.93 452.65C1319.44 452.351 1320.02 452.202 1320.68 452.202C1321.37 452.202 1321.98 452.365 1322.53 452.692C1323.09 453.019 1323.53 453.481 1323.85 454.078C1324.17 454.666 1324.32 455.352 1324.32 456.136C1324.32 456.911 1324.17 457.601 1323.85 458.208C1323.53 458.815 1323.09 459.286 1322.53 459.622C1321.98 459.958 1321.37 460.126 1320.68 460.126C1320.03 460.126 1319.45 459.981 1318.95 459.692C1318.45 459.393 1318.08 459.025 1317.81 458.586V463.64H1316.54V452.328H1317.81V453.742ZM1323.02 456.136C1323.02 455.557 1322.91 455.053 1322.67 454.624C1322.44 454.195 1322.12 453.868 1321.72 453.644C1321.33 453.42 1320.89 453.308 1320.42 453.308C1319.95 453.308 1319.52 453.425 1319.12 453.658C1318.72 453.882 1318.41 454.213 1318.16 454.652C1317.93 455.081 1317.81 455.581 1317.81 456.15C1317.81 456.729 1317.93 457.237 1318.16 457.676C1318.41 458.105 1318.72 458.437 1319.12 458.67C1319.52 458.894 1319.95 459.006 1320.42 459.006C1320.89 459.006 1321.33 458.894 1321.72 458.67C1322.12 458.437 1322.44 458.105 1322.67 457.676C1322.91 457.237 1323.02 456.724 1323.02 456.136ZM1333 455.87C1333 456.113 1332.99 456.369 1332.96 456.64H1326.83C1326.87 457.396 1327.13 457.989 1327.6 458.418C1328.07 458.838 1328.65 459.048 1329.32 459.048C1329.87 459.048 1330.33 458.922 1330.69 458.67C1331.07 458.409 1331.33 458.063 1331.48 457.634H1332.85C1332.64 458.371 1332.23 458.973 1331.62 459.44C1331 459.897 1330.23 460.126 1329.32 460.126C1328.59 460.126 1327.94 459.963 1327.36 459.636C1326.79 459.309 1326.34 458.847 1326.02 458.25C1325.69 457.643 1325.53 456.943 1325.53 456.15C1325.53 455.357 1325.68 454.661 1326 454.064C1326.32 453.467 1326.76 453.009 1327.33 452.692C1327.91 452.365 1328.57 452.202 1329.32 452.202C1330.05 452.202 1330.69 452.361 1331.25 452.678C1331.81 452.995 1332.24 453.434 1332.54 453.994C1332.85 454.545 1333 455.17 1333 455.87ZM1331.69 455.604C1331.69 455.119 1331.58 454.703 1331.36 454.358C1331.15 454.003 1330.86 453.737 1330.48 453.56C1330.12 453.373 1329.71 453.28 1329.26 453.28C1328.62 453.28 1328.07 453.485 1327.61 453.896C1327.16 454.307 1326.91 454.876 1326.84 455.604H1331.69ZM1339.97 453.378V457.9C1339.97 458.273 1340.05 458.539 1340.21 458.698C1340.37 458.847 1340.64 458.922 1341.03 458.922H1341.97V460H1340.82C1340.11 460 1339.58 459.837 1339.23 459.51C1338.87 459.183 1338.7 458.647 1338.7 457.9V453.378H1337.7V452.328H1338.7V450.396H1339.97V452.328H1341.97V453.378H1339.97ZM1346.86 460.126C1346.14 460.126 1345.49 459.963 1344.9 459.636C1344.32 459.309 1343.87 458.847 1343.53 458.25C1343.2 457.643 1343.04 456.943 1343.04 456.15C1343.04 455.366 1343.21 454.675 1343.54 454.078C1343.89 453.471 1344.36 453.009 1344.94 452.692C1345.53 452.365 1346.19 452.202 1346.92 452.202C1347.65 452.202 1348.3 452.365 1348.89 452.692C1349.48 453.009 1349.94 453.467 1350.28 454.064C1350.62 454.661 1350.8 455.357 1350.8 456.15C1350.8 456.943 1350.62 457.643 1350.26 458.25C1349.92 458.847 1349.45 459.309 1348.85 459.636C1348.25 459.963 1347.59 460.126 1346.86 460.126ZM1346.86 459.006C1347.32 459.006 1347.75 458.899 1348.15 458.684C1348.55 458.469 1348.87 458.147 1349.12 457.718C1349.37 457.289 1349.49 456.766 1349.49 456.15C1349.49 455.534 1349.37 455.011 1349.13 454.582C1348.89 454.153 1348.57 453.835 1348.18 453.63C1347.79 453.415 1347.36 453.308 1346.9 453.308C1346.44 453.308 1346.01 453.415 1345.62 453.63C1345.23 453.835 1344.92 454.153 1344.69 454.582C1344.46 455.011 1344.34 455.534 1344.34 456.15C1344.34 456.775 1344.45 457.303 1344.68 457.732C1344.91 458.161 1345.22 458.483 1345.6 458.698C1345.98 458.903 1346.4 459.006 1346.86 459.006ZM1358.92 460.126C1358.33 460.126 1357.8 460.028 1357.34 459.832C1356.87 459.627 1356.5 459.347 1356.23 458.992C1355.96 458.628 1355.81 458.213 1355.78 457.746H1357.1C1357.14 458.129 1357.31 458.441 1357.63 458.684C1357.96 458.927 1358.38 459.048 1358.91 459.048C1359.39 459.048 1359.77 458.941 1360.05 458.726C1360.33 458.511 1360.47 458.241 1360.47 457.914C1360.47 457.578 1360.32 457.331 1360.03 457.172C1359.73 457.004 1359.26 456.841 1358.64 456.682C1358.07 456.533 1357.6 456.383 1357.24 456.234C1356.88 456.075 1356.58 455.847 1356.32 455.548C1356.06 455.24 1355.94 454.839 1355.94 454.344C1355.94 453.952 1356.05 453.593 1356.29 453.266C1356.52 452.939 1356.85 452.683 1357.28 452.496C1357.71 452.3 1358.2 452.202 1358.75 452.202C1359.6 452.202 1360.29 452.417 1360.81 452.846C1361.33 453.275 1361.61 453.863 1361.65 454.61H1360.38C1360.35 454.209 1360.18 453.887 1359.89 453.644C1359.6 453.401 1359.2 453.28 1358.71 453.28C1358.25 453.28 1357.89 453.378 1357.62 453.574C1357.35 453.77 1357.21 454.027 1357.21 454.344C1357.21 454.596 1357.29 454.806 1357.45 454.974C1357.62 455.133 1357.82 455.263 1358.07 455.366C1358.32 455.459 1358.66 455.567 1359.1 455.688C1359.65 455.837 1360.1 455.987 1360.45 456.136C1360.79 456.276 1361.08 456.491 1361.33 456.78C1361.58 457.069 1361.71 457.447 1361.72 457.914C1361.72 458.334 1361.6 458.712 1361.37 459.048C1361.14 459.384 1360.8 459.65 1360.38 459.846C1359.96 460.033 1359.47 460.126 1358.92 460.126ZM1370.52 455.87C1370.52 456.113 1370.5 456.369 1370.48 456.64H1364.34C1364.39 457.396 1364.65 457.989 1365.11 458.418C1365.59 458.838 1366.16 459.048 1366.84 459.048C1367.39 459.048 1367.84 458.922 1368.21 458.67C1368.58 458.409 1368.84 458.063 1368.99 457.634H1370.36C1370.16 458.371 1369.75 458.973 1369.13 459.44C1368.52 459.897 1367.75 460.126 1366.84 460.126C1366.11 460.126 1365.45 459.963 1364.88 459.636C1364.31 459.309 1363.86 458.847 1363.53 458.25C1363.2 457.643 1363.04 456.943 1363.04 456.15C1363.04 455.357 1363.2 454.661 1363.52 454.064C1363.83 453.467 1364.28 453.009 1364.85 452.692C1365.43 452.365 1366.09 452.202 1366.84 452.202C1367.56 452.202 1368.21 452.361 1368.77 452.678C1369.33 452.995 1369.76 453.434 1370.06 453.994C1370.36 454.545 1370.52 455.17 1370.52 455.87ZM1369.2 455.604C1369.2 455.119 1369.09 454.703 1368.88 454.358C1368.66 454.003 1368.37 453.737 1368 453.56C1367.63 453.373 1367.23 453.28 1366.78 453.28C1366.14 453.28 1365.58 453.485 1365.13 453.896C1364.68 454.307 1364.42 454.876 1364.36 455.604H1369.2ZM1371.72 456.136C1371.72 455.352 1371.88 454.666 1372.2 454.078C1372.52 453.481 1372.95 453.019 1373.5 452.692C1374.06 452.365 1374.68 452.202 1375.36 452.202C1376.04 452.202 1376.62 452.347 1377.11 452.636C1377.61 452.925 1377.98 453.289 1378.22 453.728V452.328H1379.51V460H1378.22V458.572C1377.97 459.02 1377.59 459.393 1377.09 459.692C1376.59 459.981 1376.01 460.126 1375.35 460.126C1374.67 460.126 1374.05 459.958 1373.5 459.622C1372.95 459.286 1372.52 458.815 1372.2 458.208C1371.88 457.601 1371.72 456.911 1371.72 456.136ZM1378.22 456.15C1378.22 455.571 1378.1 455.067 1377.87 454.638C1377.64 454.209 1377.32 453.882 1376.92 453.658C1376.53 453.425 1376.09 453.308 1375.62 453.308C1375.14 453.308 1374.71 453.42 1374.31 453.644C1373.92 453.868 1373.61 454.195 1373.38 454.624C1373.14 455.053 1373.03 455.557 1373.03 456.136C1373.03 456.724 1373.14 457.237 1373.38 457.676C1373.61 458.105 1373.92 458.437 1374.31 458.67C1374.71 458.894 1375.14 459.006 1375.62 459.006C1376.09 459.006 1376.53 458.894 1376.92 458.67C1377.32 458.437 1377.64 458.105 1377.87 457.676C1378.1 457.237 1378.22 456.729 1378.22 456.15ZM1382.93 453.574C1383.16 453.135 1383.48 452.795 1383.89 452.552C1384.31 452.309 1384.81 452.188 1385.41 452.188V453.504H1385.08C1383.65 453.504 1382.93 454.279 1382.93 455.828V460H1381.66V452.328H1382.93V453.574ZM1386.41 456.15C1386.41 455.357 1386.57 454.666 1386.88 454.078C1387.2 453.481 1387.64 453.019 1388.2 452.692C1388.77 452.365 1389.42 452.202 1390.14 452.202C1391.09 452.202 1391.86 452.431 1392.47 452.888C1393.08 453.345 1393.49 453.98 1393.69 454.792H1392.31C1392.18 454.325 1391.93 453.957 1391.54 453.686C1391.17 453.415 1390.7 453.28 1390.14 453.28C1389.42 453.28 1388.83 453.532 1388.38 454.036C1387.93 454.531 1387.71 455.235 1387.71 456.15C1387.71 457.074 1387.93 457.788 1388.38 458.292C1388.83 458.796 1389.42 459.048 1390.14 459.048C1390.7 459.048 1391.17 458.917 1391.54 458.656C1391.92 458.395 1392.17 458.021 1392.31 457.536H1393.69C1393.48 458.32 1393.07 458.95 1392.45 459.426C1391.84 459.893 1391.07 460.126 1390.14 460.126C1389.42 460.126 1388.77 459.963 1388.2 459.636C1387.64 459.309 1387.2 458.847 1386.88 458.25C1386.57 457.653 1386.41 456.953 1386.41 456.15ZM1399.19 452.188C1399.77 452.188 1400.3 452.314 1400.76 452.566C1401.23 452.809 1401.59 453.177 1401.85 453.672C1402.13 454.167 1402.26 454.769 1402.26 455.478V460H1401V455.66C1401 454.895 1400.81 454.311 1400.43 453.91C1400.04 453.499 1399.52 453.294 1398.86 453.294C1398.19 453.294 1397.65 453.504 1397.25 453.924C1396.86 454.344 1396.66 454.955 1396.66 455.758V460H1395.39V449.64H1396.66V453.42C1396.91 453.028 1397.26 452.725 1397.7 452.51C1398.14 452.295 1398.64 452.188 1399.19 452.188Z" fill="white"/>
</g>
<defs>
<linearGradient id="paint0_linear_38_7936" x1="1438.9" y1="239.783" x2="1614.25" y2="315.205" gradientUnits="userSpaceOnUse">
<stop stop-color="white"/>
<stop offset="1" stop-color="#84B2F7"/>
</linearGradient>
<linearGradient id="paint1_linear_38_7936" x1="1159.9" y1="316.783" x2="1335.25" y2="392.205" gradientUnits="userSpaceOnUse">
<stop stop-color="white"/>
<stop offset="1" stop-color="#84B2F7"/>
</linearGradient>
<linearGradient id="paint2_linear_38_7936" x1="1261.9" y1="64.7828" x2="1437.25" y2="140.205" gradientUnits="userSpaceOnUse">
<stop stop-color="white"/>
<stop offset="1" stop-color="#84B2F7"/>
</linearGradient>
<linearGradient id="paint3_linear_38_7936" x1="1113.9" y1="217.783" x2="1289.25" y2="293.205" gradientUnits="userSpaceOnUse">
<stop stop-color="white"/>
<stop offset="1" stop-color="#84B2F7"/>
</linearGradient>
<linearGradient id="paint4_linear_38_7936" x1="1246.29" y1="-22.0012" x2="1383.61" y2="21.7452" gradientUnits="userSpaceOnUse">
<stop stop-color="#84B2F7"/>
<stop offset="1" stop-color="white"/>
</linearGradient>
<linearGradient id="paint5_linear_38_7936" x1="1570.44" y1="62.5926" x2="1422.77" y2="51.5372" gradientUnits="userSpaceOnUse">
<stop stop-color="white"/>
<stop offset="1" stop-color="#84B2F7"/>
</linearGradient>
<linearGradient id="paint6_linear_38_7936" x1="1848.78" y1="22.4246" x2="1986.1" y2="66.171" gradientUnits="userSpaceOnUse">
<stop stop-color="white"/>
<stop offset="1" stop-color="#84B2F7"/>
</linearGradient>
<linearGradient id="paint7_linear_38_7936" x1="1392.9" y1="141.783" x2="1568.25" y2="217.205" gradientUnits="userSpaceOnUse">
<stop stop-color="white"/>
<stop offset="1" stop-color="#84B2F7"/>
</linearGradient>
<linearGradient id="paint8_linear_38_7936" x1="1721.05" y1="66.6542" x2="1868.57" y2="79.5971" gradientUnits="userSpaceOnUse">
<stop stop-color="white"/>
<stop offset="1" stop-color="#84B2F7"/>
</linearGradient>
<linearGradient id="paint9_linear_38_7936" x1="1498.29" y1="121.936" x2="1635.6" y2="165.683" gradientUnits="userSpaceOnUse">
<stop stop-color="white"/>
<stop offset="1" stop-color="#84B2F7"/>
</linearGradient>
<linearGradient id="paint10_linear_38_7936" x1="1792.44" y1="223.059" x2="1644.77" y2="212.004" gradientUnits="userSpaceOnUse">
<stop stop-color="white"/>
<stop offset="1" stop-color="#84B2F7"/>
</linearGradient>
<linearGradient id="paint11_linear_38_7936" x1="2028.78" y1="188.425" x2="2166.1" y2="232.171" gradientUnits="userSpaceOnUse">
<stop stop-color="white"/>
<stop offset="1" stop-color="#84B2F7"/>
</linearGradient>
<linearGradient id="paint12_linear_38_7936" x1="1622.9" y1="299.07" x2="1798.25" y2="374.492" gradientUnits="userSpaceOnUse">
<stop stop-color="white"/>
<stop offset="1" stop-color="#84B2F7"/>
</linearGradient>
<linearGradient id="paint13_linear_38_7936" x1="1343.9" y1="376.07" x2="1519.25" y2="451.492" gradientUnits="userSpaceOnUse">
<stop stop-color="white"/>
<stop offset="1" stop-color="#84B2F7"/>
</linearGradient>
<linearGradient id="paint14_linear_38_7936" x1="1736.31" y1="741.2" x2="1884.03" y2="751.534" gradientUnits="userSpaceOnUse">
<stop stop-color="white"/>
<stop offset="1" stop-color="#84B2F7"/>
</linearGradient>
<linearGradient id="paint15_linear_38_7936" x1="1522.29" y1="796.999" x2="1659.61" y2="840.745" gradientUnits="userSpaceOnUse">
<stop stop-color="white"/>
<stop offset="1" stop-color="#84B2F7"/>
</linearGradient>
<linearGradient id="paint16_linear_38_7936" x1="1734.44" y1="928.059" x2="1586.77" y2="917.004" gradientUnits="userSpaceOnUse">
<stop stop-color="white"/>
<stop offset="1" stop-color="#84B2F7"/>
</linearGradient>
<linearGradient id="paint17_linear_38_7936" x1="1970.78" y1="893.425" x2="2108.1" y2="937.171" gradientUnits="userSpaceOnUse">
<stop stop-color="white"/>
<stop offset="1" stop-color="#84B2F7"/>
</linearGradient>
<linearGradient id="paint18_linear_38_7936" x1="1564.9" y1="1004.07" x2="1740.25" y2="1079.49" gradientUnits="userSpaceOnUse">
<stop stop-color="white"/>
<stop offset="1" stop-color="#84B2F7"/>
</linearGradient>
<linearGradient id="paint19_linear_38_7936" x1="1285.9" y1="1081.07" x2="1461.25" y2="1156.49" gradientUnits="userSpaceOnUse">
<stop stop-color="white"/>
<stop offset="1" stop-color="#84B2F7"/>
</linearGradient>
<linearGradient id="paint20_linear_38_7936" x1="1078.9" y1="1105.78" x2="1254.25" y2="1181.21" gradientUnits="userSpaceOnUse">
<stop stop-color="white"/>
<stop offset="1" stop-color="#84B2F7"/>
</linearGradient>
<linearGradient id="paint21_linear_38_7936" x1="1733.78" y1="1086.42" x2="1871.1" y2="1130.17" gradientUnits="userSpaceOnUse">
<stop stop-color="white"/>
<stop offset="1" stop-color="#84B2F7"/>
</linearGradient>
<linearGradient id="paint22_linear_38_7936" x1="1512.78" y1="1137.42" x2="1650.1" y2="1181.17" gradientUnits="userSpaceOnUse">
<stop stop-color="white"/>
<stop offset="1" stop-color="#84B2F7"/>
</linearGradient>
<linearGradient id="paint23_linear_38_7936" x1="2060.9" y1="990.783" x2="2236.25" y2="1066.21" gradientUnits="userSpaceOnUse">
<stop stop-color="white"/>
<stop offset="1" stop-color="#84B2F7"/>
</linearGradient>
<linearGradient id="paint24_linear_38_7936" x1="1758.05" y1="607.977" x2="1905.76" y2="618.312" gradientUnits="userSpaceOnUse">
<stop stop-color="white"/>
<stop offset="1" stop-color="#84B2F7"/>
</linearGradient>
<linearGradient id="paint25_linear_38_7936" x1="1544.02" y1="663.778" x2="1681.34" y2="707.524" gradientUnits="userSpaceOnUse">
<stop stop-color="white"/>
<stop offset="1" stop-color="#84B2F7"/>
</linearGradient>
<linearGradient id="paint26_linear_38_7936" x1="1311.02" y1="722.778" x2="1448.34" y2="766.524" gradientUnits="userSpaceOnUse">
<stop stop-color="white"/>
<stop offset="1" stop-color="#84B2F7"/>
</linearGradient>
<linearGradient id="paint27_linear_38_7936" x1="1065.16" y1="792.249" x2="1212.88" y2="802.583" gradientUnits="userSpaceOnUse">
<stop stop-color="white"/>
<stop offset="1" stop-color="#84B2F7"/>
</linearGradient>
<linearGradient id="paint28_linear_38_7936" x1="1289.29" y1="855.999" x2="1426.61" y2="899.745" gradientUnits="userSpaceOnUse">
<stop stop-color="white"/>
<stop offset="1" stop-color="#84B2F7"/>
</linearGradient>
<linearGradient id="paint29_linear_38_7936" x1="1043.42" y1="925.469" x2="1191.14" y2="935.804" gradientUnits="userSpaceOnUse">
<stop stop-color="white"/>
<stop offset="1" stop-color="#84B2F7"/>
</linearGradient>
<radialGradient id="paint30_radial_38_7936" cx="0" cy="0" r="1" gradientUnits="userSpaceOnUse" gradientTransform="translate(200 220) rotate(90) scale(180)">
<stop stop-color="#3A72C7"/>
<stop offset="1" stop-color="#225199"/>
</radialGradient>
<radialGradient id="paint31_radial_38_7936" cx="0" cy="0" r="1" gradientUnits="userSpaceOnUse" gradientTransform="translate(838 697) rotate(90) scale(137)">
<stop stop-color="#2D7AEE"/>
<stop offset="1" stop-color="#0042A6"/>
</radialGradient>
<radialGradient id="paint32_radial_38_7936" cx="0" cy="0" r="1" gradientUnits="userSpaceOnUse" gradientTransform="translate(143 917) rotate(90) scale(94)">
<stop stop-color="#2D7AEE"/>
<stop offset="1" stop-color="#0042A6"/>
</radialGradient>
<radialGradient id="paint33_radial_38_7936" cx="0" cy="0" r="1" gradientUnits="userSpaceOnUse" gradientTransform="translate(764 120) rotate(90) scale(74)">
<stop stop-color="#2D7AEE"/>
<stop offset="1" stop-color="#0042A6"/>
</radialGradient>
<clipPath id="clip0_38_7936">
<rect width="1920" height="1080" fill="white"/>
</clipPath>
</defs>
</svg>
